<svg version="1.0" xmlns="http://www.w3.org/2000/svg" width="933.333" height="933.333" viewBox="0 0 700 700"><path d="M192.9 1.5c-1.4.8-3.4 2.7-4.4 4.2-1.8 2.6-1.8 15.3-1.8 309.3 0 294.5 0 306.7 1.8 309.3 5.1 7.8 16.1 7.3 20-.9 1.3-2.8 1.5-37 1.5-301.7V23.2h280v298.5c0 269.8.2 298.8 1.6 301.8 1.6 3.4 6.5 6.5 10.4 6.5 3.2 0 7.5-2.5 9.5-5.7 1.8-2.6 1.8-15 1.8-309.3 0-297.8 0-306.6-1.8-309.4-3.9-5.9 5-5.6-162.2-5.6-130.8.1-154.2.3-156.4 1.5z"/><path d="M262.3 72c-5.7 3.4-5.7 3.2-5.7 44.6 0 34.3.2 38.4 1.7 40.8 3.8 5.7 4.4 5.8 33.1 5.8 23.3.1 26.7-.1 29.3-1.7 5.9-3.4 5.8-2.6 5.9-44.3.1-37.6.1-38.4-2-41.5-3.7-5.5-4.8-5.7-33.1-5.7-24 0-26.2.2-29.2 2zm40.8 22.8c0 .9.1 11.4.2 23.2l.1 21.5-11.7.3-11.7.3V93.3l11.5-.1c10.2-.1 11.5.1 11.6 1.6zm77-23.5c-1.3.6-3.4 2.5-4.5 4-2 2.8-2.1 3.8-2.1 41.1 0 41.7 0 41.7 5.7 45.1 2.8 1.6 5.8 1.8 29.5 1.7 28.6 0 29.2-.1 32.9-5.8 1.5-2.3 1.7-6.7 1.7-40.7 0-41.5.1-41.3-5.6-44.7-3-1.8-5.2-2-29.2-2-18.7 0-26.7.4-28.4 1.3zm39.9 45.3v23.5l-11.7-.3-11.6-.3V119c.1-11.3.2-21.7.2-23.1l.1-2.6 11.5-.1 11.5-.1v23.5zM6.8 141.1c-1.5.6-3.6 2.5-4.8 4.3-2 3.3-2 4.3-2 122.7C0 361.6.3 388 1.3 390c1.7 3.3 7.5 7.1 10.1 6.6 6.1-1.2 7.7-2.1 9.8-5.4l2.1-3.5.1-112.2V163.2h62c34.2 0 64.1-.1 66.5-.1 3.5-.1 4.9-.7 7.7-3.5s3.4-4.1 3.4-7.8c0-2.4-.7-5.4-1.6-6.7-3.7-5.2-2.9-5.1-80.1-5-44.8 0-72.8.4-74.5 1zm536.1.4c-6.2 3.4-7.9 12-3.4 17.4 1.4 1.6 3.6 3.3 4.8 3.7 1.2.4 31.4.7 67.2.8l65 .1.1 234.3c0 212.8-.1 234.2-1.5 233.6-.9-.4-4.9-.8-9-1-6.8-.2-7.5-.5-9.1-3.1-6-9.4-18.1-17.5-29.7-19.8-9-1.8-21.2-.1-30.2 4.3-5.6 2.7-17.4 13.5-18.5 17-.5 1.4-1.4 1.7-4.8 1.4-9.8-1-20.8 3.7-28.2 11.9-15.3 17-9.7 44.1 11.1 54.5l5.8 2.9h111l5.5-2.6c8.2-3.9 13.5-9 17.2-16.7l3.3-6.7.3-261.8c.2-243.5.1-262.1-1.5-265.4-3-6.5-.5-6.3-80.5-6.3-60.4.1-72.7.3-74.9 1.5zm85.7 490.8c4.4 2.3 8.9 7.3 10.9 12 3.3 7.9 4 9 7 10.9 3.8 2.3 7.2 2.3 12.5-.1 4.7-2.1 9.1-1.8 12.6.7 6.6 4.9 6.4 14.5-.3 18.9-2.5 1.7-6.8 1.8-52.3 1.9-37.9.1-50.1-.2-52-1.1-3.9-2-6.1-5-6.7-9.2-.6-5 2.8-10.2 8-12.2 3.5-1.3 4.2-1.2 9 .7 2.9 1.2 6.3 2.2 7.5 2.2 4.6 0 9.8-4.2 10.8-8.9 1.7-7.4 7.7-13.9 15.3-16.8 4.4-1.6 13.6-1.1 17.7 1z"/><path d="M75.9 211.7c-5.9 3.6-5.9 3.7-5.9 44.2 0 40.2.2 42.2 5.4 45.6 2.6 1.7 6.7 1.9 45.2 1.6 11.1-.1 12.3-.3 14.6-2.4 1.4-1.2 3.1-3.2 3.7-4.4 1.8-3.4 1.5-75.4-.3-79.7-2.5-6.1-5.1-6.6-34.3-6.6-22.1 0-26.2.3-28.4 1.7zm40.7 45V280H93.3v-22.8c0-12.5.2-23.1.4-23.5.3-.4 5.5-.6 11.6-.5l11.2.3.1 23.2zM262.3 212c-5.7 3.4-5.7 3.2-5.7 44.7 0 34.1.2 38.4 1.7 40.7 3.8 5.7 4.4 5.8 33.1 5.8 23.1 0 26.9-.2 29.4-1.7 5.8-3.4 5.7-2.7 5.8-44.3.1-37.6.1-38.3-2-41.5-3.7-5.5-4.7-5.7-33.1-5.7-24 0-26.2.2-29.2 2zm40.8 21.8c.3 2.6.4 43 .1 44.4-.4 1.6-1.8 1.8-11.8 1.8H280v-46.8l11.5-.1c6.3 0 11.5.3 11.6.7zm77.4-22.8c-1.1.4-3.1 2-4.5 3.5l-2.5 2.7v39.1c0 37.6.1 39.3 2 41.9 3.5 4.8 5.7 5.1 33.5 5.1 28.2-.1 28.9-.2 32.7-5.9 1.5-2.3 1.6-6.6 1.6-40.7 0-41.5.1-41.3-5.6-44.7-3-1.8-5.2-2-29.2-1.9-14.3 0-26.9.4-28 .9zm39.5 45.6v23.5l-11.7-.3-11.6-.3-.1-22.8c-.1-12.6.1-23 .3-23.3.2-.2 5.5-.4 11.8-.3H420v23.5zm146.8-45.5c-1.5.6-3.6 2.5-4.8 4.3-1.9 3.2-2 4.8-2 41 0 40.9.1 41.4 5.6 45.1 2.3 1.5 5.4 1.7 26.3 1.7 13 0 25.2-.1 27.2-.1 3.8-.1 7.8-2.9 9.8-6.8 1.8-3.4 1.5-75.4-.3-79.7-2.5-6.1-5.1-6.6-33.8-6.5-14 0-26.5.5-28 1zm39.8 45.6l.1 23.3h-23.4l.2-23.3c.1-12.7.3-23.3.4-23.4 0-.1 5.2-.1 11.4 0l11.2.2.1 23.2zM76.4 351.4c-5.2 2.3-6.4 6.4-6.4 22.3 0 15.4.6 17.5 6 21.1 2.5 1.6 4.3 2.1 6.7 1.7 7.5-1.2 10.4-5.4 10.6-15.8l.2-7.2h23l.2 28.5c.1 15.7.2 29.8.2 31.3.1 1.9 1.3 4.1 3.5 6.3 2.8 2.8 4.1 3.4 7.8 3.4 5.1 0 9-2.7 10.7-7.3.7-1.8 1.1-16.2 1.1-39.9 0-41.1 0-41.2-6.6-44.3-4.4-2.1-52.2-2.1-57-.1zm185.9.6c-5.7 3.4-5.7 3.2-5.7 44.6 0 34.3.2 38.4 1.7 40.8 3.7 5.6 4.3 5.7 33 5.8 23.4 0 26.8-.2 29.4-1.7 5.9-3.4 5.8-2.7 5.9-44.3.1-37.6.1-38.4-2-41.5-3.7-5.5-4.8-5.7-33.1-5.7-24 0-26.2.2-29.2 2zm40.9 22.9c.3 1.3.2 39.6-.1 43.8-.1 1-3.1 1.3-11.6 1.3H280v-22.8c0-12.6.3-23.1.6-23.5.4-.3 5.5-.6 11.4-.6 9.2.1 10.9.4 11.2 1.8zm76.8-23.6c-1.3.7-3.4 2.7-4.6 4.4-2.1 3.1-2.1 3.9-2 41.5.1 41.7 0 40.8 6 44.4 2.7 1.6 5.8 1.7 29.3 1.7 28.5 0 29.2-.2 33-5.9 1.4-2.3 1.6-6.7 1.6-40.7 0-41.5.1-41.3-5.6-44.7-3-1.8-5.2-2-29.2-2-18.8 0-26.7.4-28.5 1.3zm40 45.3V420h-23.5l.2-22.8c.1-12.5.2-23 .2-23.3.1-.4 5.3-.7 11.6-.7H420v23.4zm146.2-45.2c-1.3.7-3.2 2.6-4.3 4.2-1.8 2.7-1.9 5-1.9 40.7 0 41.1.1 41.5 5.7 45.2 2.5 1.7 5.3 1.8 29.4 1.8 23.7-.1 26.9-.3 29.3-1.8 5.5-3.6 5.6-4.2 5.6-44.5 0-41.6-.2-42.9-6.6-45.6-4.6-1.9-53.8-2-57.2 0zm40.3 45.1v23l-11.6.3-11.6.3.2-23.3c.1-12.8.3-23.4.4-23.5 0-.2 5.2-.2 11.4 0l11.2.2v23zM51 420.7c-5.4 1.9-12.1 5.8-15.8 9.3-15 14.3-26.6 47.9-31.7 91.5-.3 2.7-.8 6.3-1 8-2.3 15.1-2.6 48.6-.6 56.8.8 3.2 1.8 6 2.3 6.3.4.3.8 1.2.8 2 0 2.6 7.9 14 13.2 19.1 2.9 2.7 7.4 6.2 9.9 7.6 4.9 2.9 16.4 7.7 17.7 7.4.4-.1.8 14 .8 31.4.2 34.7.2 35.2 6.5 38.5 3.6 1.8 6.3 1.8 10.3-.1 6-2.9 6.1-3 6.6-37.9l.5-31.8 5.5-1.7c7.2-2.3 11.3-4.5 18-9.6 9.5-7.4 15.5-16 19.6-28 2.3-6.9 2.7-9.7 2.7-20 .1-11.9-1-33.6-1.8-36.5-.2-.8-.6-4.2-1-7.5-4.7-44.9-15.8-78.7-31-94-7.6-7.8-13.7-10.7-23-11-3.8-.2-7.7-.1-8.5.2zm13.5 25.1c11.5 8.6 22.9 46.7 27 90.7.3 3.3.8 8 1 10.5.9 9.6.6 29.9-.5 33.9-3.6 13.4-16.5 24.2-30.3 25.4-17.4 1.5-33.3-9.9-37.2-26.7-1.6-6.7-1.1-27.7 1-47.4 1.2-10.8 1.6-13.8 2-15.2.2-.8.6-3.3 1-5.5 2.7-19.1 8.3-39.6 14.1-52.1 6.7-14.3 14.5-19.1 21.9-13.6zm175.6 45.5c-8.5 4.3-8.5 17.1 0 20.7 1.5.7 10.1 1.1 21.2 1.2H280v53.5c0 46.6.2 53.9 1.6 56.8 1.6 3.4 6.5 6.5 10.4 6.5 3.2 0 7.5-2.6 9.5-5.7 1.7-2.6 1.9-6.2 1.9-56.8l.1-54 44.5-.2c24.5-.1 45.4 0 46.6.2 2 .4 2 .7 2.1 54.3 0 50 .1 54 1.8 56.6 2 3.1 6.3 5.6 9.5 5.6 3.9 0 8.8-3.1 10.4-6.5 1.4-2.9 1.6-10.2 1.6-56.8v-53.6l18.9.1c23.3 0 26-1 27.6-10.8.6-3.7-2.6-9.2-6.5-11.1-3.6-1.8-216.4-1.8-219.9 0zm326.3.1c-6.2 2.7-6.4 4.3-6.4 45.6 0 40.3.1 40.9 5.6 44.5 2.3 1.5 5.6 1.7 29.5 1.7 23.8-.1 27.1-.3 29.5-1.9 5.2-3.4 5.4-5.1 5.4-45.4 0-35.6-.1-37.3-2-40.4-1.1-1.8-3.5-3.8-5.2-4.4-4.8-1.7-52.4-1.4-56.4.3zm39.8 22.4c.1.4.2 10.9.3 23.4l.2 22.8h-23.3l.1-23.3c.1-12.7.3-23.3.4-23.3.6-.6 22.1-.2 22.3.4z"/><path d="M343.5 562.4c-7.3 5.3-6.3 16.4 1.8 19.7 5 2.1 11.5.5 14.1-3.6 7-10.6-5.8-23.5-15.9-16.1zm-173.3 92.2c-5.8 2.4-6.7 5.2-6.8 21.4-.1 15.1.4 17.7 4.4 21.3 2.6 2.4 9 3.2 12.1 1.5 5.3-2.9 6.7-6.9 7-19.8l.1-2.5 158.3.1c87 0 159.2-.3 160.4-.7 9.8-3.6 9.4-19.2-.5-21.8-2.3-.6-66.3-.9-167.8-.9-131.2.1-164.8.3-167.2 1.4z"/></svg>